<svg xml:space="preserve" style="max-height: 500px" viewBox="0.45000000000000007 0 97.5 104" y="0px" x="0px" version="1.1" xmlns:xlink="http://www.w3.org/1999/xlink" xmlns="http://www.w3.org/2000/svg" width="97.5" height="104"><path d="M74.3,25.6c1.1-1.3,1.8-2.9,1.8-4.8v-8.3c0-4-3.2-7.2-7.2-7.2H31.1c-4,0-7.2,3.2-7.2,7.2v8.3c0,1.8,0.7,3.5,1.8,4.8  c-4.3,2.2-7.3,6.7-7.3,11.9v43.9c0,7.4,6,13.3,13.3,13.3h36.6c7.4,0,13.3-6,13.3-13.3V37.5C81.7,32.3,78.7,27.8,74.3,25.6z   M27.8,12.5c0-1.8,1.5-3.3,3.3-3.3h37.8c1.8,0,3.3,1.5,3.3,3.3v8.3c0,1.8-1.5,3.3-3.3,3.3h-0.6H31.7h-0.6c-1.8,0-3.3-1.5-3.3-3.3  V12.5z M31.7,28.1h36.6c4.5,0,8.2,3.1,9.2,7.3H22.5C23.5,31.2,27.2,28.1,31.7,28.1z M68.5,61c-0.7,9-8,16.3-17,17  c-11.4,0.9-20.8-8.6-20-20c0.7-9,8-16.3,17-17C59.9,40.1,69.3,49.6,68.5,61z M68.3,90.7H31.7c-4.5,0-8.2-3.1-9.2-7.3h54.9  C76.5,87.6,72.8,90.7,68.3,90.7z"/><rect height="12.2" width="2.9" y="10.5" x="30.4"/><rect height="12.2" width="2.9" y="10.5" x="39.6"/><rect height="12.2" width="2.9" y="10.5" x="49.2"/><rect height="12.2" width="2.9" y="10.5" x="58.3"/><rect height="12.2" width="2.9" y="10.5" x="66.6"/><ellipse ry="5.1" rx="3.6" cy="55" cx="42.1"/><path d="M50,70.2c4.3,0,7.6-3.5,7.7-7.6H42.4C42.4,66.8,45.8,70.2,50,70.2z"/><ellipse ry="5.1" rx="3.6" cy="55.1" cx="58"/><text font-family="'Helvetica Neue', Helvetica, Arial-Unicode, Arial, Sans-serif" font-weight="bold" font-size="5px" fill="#000000" y="115" x="0">Created by Round Icons</text><text font-family="'Helvetica Neue', Helvetica, Arial-Unicode, Arial, Sans-serif" font-weight="bold" font-size="5px" fill="#000000" y="120" x="0">from the Noun Project</text></svg>